<svg width="54" height="56" viewBox="0 0 54 56" fill="none" xmlns="http://www.w3.org/2000/svg">
<path d="M14.9884 7.19175C22.384 2.76376 31.616 2.76376 39.0116 7.19175V7.19175C46.0652 11.415 50.3827 19.0322 50.3827 27.2534V28.7466C50.3827 36.9678 46.0652 44.585 39.0116 48.8082V48.8082C31.616 53.2362 22.384 53.2362 14.9884 48.8082V48.8082C7.93481 44.585 3.61731 36.9678 3.61731 28.7466V27.2534C3.61731 19.0322 7.93481 11.415 14.9884 7.19175V7.19175Z" fill="#9747FF"/>
<path d="M33.9598 23.3204C30.3977 27.0893 26.6006 29.721 21.5403 30.9891L24.4082 27.671C21.2959 29.3768 19.5345 31.8719 19.3535 35.4706C19.1837 38.8206 20.2155 41.7665 22.2717 44.9088C17.3551 43.6856 12.7724 42.9767 10.621 38.0836C9.60038 35.7606 9.58173 33.3458 10.4009 31.0022C11.7462 27.1472 13.0915 23.2811 14.7167 19.5402C17.4838 13.1808 23.3857 10.0964 30.2279 11.1645C32.2207 11.4749 33.9467 12.2437 35.1689 13.9289C35.3256 14.144 35.4618 14.4545 35.6782 14.535C39.2141 15.8443 39.6265 19.0651 40.4829 22.1177C41.3114 25.0748 42.597 27.9048 43.4292 30.86C43.9736 32.7084 44.2254 34.6308 44.1756 36.5574C44.058 39.3836 42.4757 41.4635 39.8616 42.6119C38.0442 43.4106 36.1746 44.0933 33.7713 45.0435C38.5293 37.5711 38.1562 30.6225 33.9598 23.3204Z" fill="#EEF3F7"/>
</svg>
